<svg xmlns="http://www.w3.org/2000/svg" xml:space="preserve" id="Layer_1" width="76.6" height="76.7" x="0" y="0" version="1.1">
	<style id="style122" type="text/css">
    .st4{fill:#161c24}
	</style>
	<g id="g164">
		<g id="g153">
			<g id="g151">
				<linearGradient id="SVGID_1_" x1="17.176" x2="69.944" y1="48.536" y2="12.826" gradientTransform="matrix(1 0 0 -1 0 78.076)" gradientUnits="userSpaceOnUse">
					<stop id="stop124" offset="0" style="stop-color:#5dcbdd"/>
					<stop id="stop126" offset=".494" style="stop-color:#73cc93"/>
					<stop id="stop128" offset="1" style="stop-color:#f4e736"/>
				</linearGradient>
				<path id="path131" d="M28.2 43.4c3.5 0 6.4-2.8 6.4-6.4 0-3.5-2.8-6.4-6.4-6.4-3.5 0-6.4 2.8-6.4 6.4 0 3.5 2.8 6.4 6.4 6.4z" style="fill:url(#SVGID_1_)"/>
				<linearGradient id="SVGID_2_" x1="23.584" x2="76.352" y1="58.005" y2="22.295" gradientTransform="matrix(1 0 0 -1 0 78.076)" gradientUnits="userSpaceOnUse">
					<stop id="stop133" offset="0" style="stop-color:#5dcbdd"/>
					<stop id="stop135" offset=".494" style="stop-color:#73cc93"/>
					<stop id="stop137" offset="1" style="stop-color:#f4e736"/>
				</linearGradient>
				<path id="path140" d="M48.6 43.4c3.5 0 6.4-2.8 6.4-6.4 0-3.5-2.8-6.4-6.4-6.4-3.6 0-6.4 2.8-6.4 6.4 0 3.5 2.8 6.4 6.4 6.4z" style="fill:url(#SVGID_2_)"/>
				<linearGradient id="SVGID_3_" x1="9.405" x2="62.173" y1="37.053" y2="1.343" gradientTransform="matrix(1 0 0 -1 0 78.076)" gradientUnits="userSpaceOnUse">
					<stop id="stop142" offset="0" style="stop-color:#5dcbdd"/>
					<stop id="stop144" offset=".494" style="stop-color:#73cc93"/>
					<stop id="stop146" offset="1" style="stop-color:#f4e736"/>
				</linearGradient>
				<path id="path149" d="m71.3 62.4-1.8-1.8-9.3-9.3c-2.2 3.7-5.3 6.8-9 9-3.8 2.2-8.2 3.5-12.9 3.5-4.8 0-9.3-1.3-13.1-3.6-3.7-2.2-6.8-5.3-9-9.1l-9.3 9.3c2.5 3.5 5.5 6.6 9 9.1 6.3 4.5 14 7.2 22.4 7.2 8.3 0 15.9-2.6 22.2-7.1l1.8 1.8c2.5 2.5 6.5 2.5 9 0s2.5-6.5 0-9z" style="fill:url(#SVGID_3_)"/>
			</g>
		</g>
		<linearGradient id="SVGID_4_" x1="79.807" x2="-1.497" y1="55.944" y2="54.987" gradientTransform="matrix(1 0 0 -1 0 78.076)" gradientUnits="userSpaceOnUse">
			<stop id="stop155" offset="0" style="stop-color:#355aad"/>
			<stop id="stop157" offset=".483" style="stop-color:#119ed8"/>
			<stop id="stop159" offset="1" style="stop-color:#53c29d"/>
		</linearGradient>
		<path id="path162" d="M76.1 32c-1-5.9-3.3-11.3-6.7-16-2.5-3.5-5.6-6.5-9.1-9-6.2-4.4-13.8-7-22.1-7S22.3 2.6 16 7.1c-3.5 2.5-6.5 5.5-9 9-3.3 4.6-5.6 10-6.5 15.8C.2 34 0 36.1 0 38.3s.2 4.3.5 6.4h13.1c-.5-2-.8-4.2-.8-6.4s.3-4.4.8-6.4c.6-2.3 1.5-4.5 2.7-6.5 2.2-3.7 5.3-6.8 9-9 3.8-2.2 8.2-3.5 12.9-3.5 4.6 0 9 1.2 12.8 3.4 3.7 2.2 6.9 5.3 9.1 9 1.2 2.1 2.2 4.3 2.8 6.7.5 2 .8 4.2.8 6.4s-.3 4.4-.8 6.4h13.2c.3-2.1.5-4.2.5-6.4s-.2-4.3-.5-6.4z" style="fill:url(#SVGID_4_)"/>
	</g>
</svg>